<svg data-icon-name="apple-fruit" data-style="flat-line" icon_origin_id="19560" viewBox="0 0 24 24" xmlns="http://www.w3.org/2000/svg" data-name="Flat Line" id="apple-fruit" class="icon flat-line" width="48" height="48"><path style="fill: rgb(243, 243, 243); stroke-width: 1px;" d="M19.92,12.38c-.5,4.55-2.6,8.62-4.73,8.62-1.39,0-1.71-1-3.19-1s-1.81,1-3.19,1c-2.13,0-4.23-4.07-4.73-8.62-.35-3.23.46-5.24,2.42-6.06C9,5.27,10.41,7,12,7s3-1.73,5.49-.68C19.45,7.14,20.28,9.15,19.92,12.38Z" id="secondary"></path><path style="fill: none; stroke: rgb(255, 255, 255); stroke-linecap: round; stroke-linejoin: round; stroke-width: 1px;" d="M12,7a5.11,5.11,0,0,1,2-4" id="primary"></path><path style="fill: none; stroke: rgb(255, 255, 255); stroke-linecap: round; stroke-linejoin: round; stroke-width: 1px;" d="M19.92,12.38c-.5,4.55-2.6,8.62-4.73,8.62-1.39,0-1.71-1-3.19-1s-1.81,1-3.19,1c-2.13,0-4.23-4.07-4.73-8.62-.35-3.23.46-5.24,2.42-6.06C9,5.27,10.41,7,12,7s3-1.73,5.49-.68C19.45,7.14,20.28,9.15,19.92,12.38Z" data-name="primary" id="primary-2"></path></svg>