<svg width="59" height="65" viewBox="0 0 59 65" fill="none" xmlns="http://www.w3.org/2000/svg">
<path d="M58.5 58.5C58.5 60.2239 57.8152 61.8772 56.5962 63.0962C55.3772 64.3152 53.7239 65 52 65H6.5C4.77609 65 3.12279 64.3152 1.90381 63.0962C0.684819 61.8772 0 60.2239 0 58.5C0.0322315 52.5789 2.08454 46.8462 5.8175 42.25C6.84463 40.9937 8.30456 40.167 9.91029 39.9324C11.516 39.6979 13.1514 40.0724 14.495 40.9825C18.8427 43.9362 23.9776 45.5155 29.2337 45.5155C34.4899 45.5155 39.6248 43.9362 43.9725 40.9825C45.3187 40.063 46.9614 39.6829 48.5747 39.9177C50.188 40.1525 51.6542 40.9849 52.6825 42.25C56.4155 46.8462 58.4678 52.5789 58.5 58.5ZM29.25 39C33.1067 39 36.8769 37.8563 40.0836 35.7137C43.2904 33.571 45.7897 30.5255 47.2656 26.9623C48.7416 23.3992 49.1277 19.4784 48.3753 15.6957C47.6229 11.9131 45.7657 8.43855 43.0386 5.71143C40.3115 2.9843 36.8369 1.12711 33.0543 0.374696C29.2716 -0.377716 25.3508 0.00844908 21.7877 1.48436C18.2245 2.96027 15.179 5.45963 13.0363 8.66639C10.8937 11.8731 9.75 15.6433 9.75 19.5C9.75 24.6717 11.8045 29.6316 15.4614 33.2886C19.1184 36.9455 24.0783 39 29.25 39Z" fill="#F77B54"/>
</svg>
