<svg data-icon-name="basketball-4" data-style="flat-line" icon_origin_id="22563" viewBox="0 0 24 24" xmlns="http://www.w3.org/2000/svg" data-name="Line Color" id="basketball-4" class="icon flat-line" width="48" height="48"><path style="fill: rgb(243, 243, 243); stroke-width: 1px;" d="M15,12a15.08,15.08,0,0,0,2.06,7.44A9,9,0,0,1,4.22,16.52C6.1,14.53,7,10.86,7,8.86a7.48,7.48,0,0,0-1-3.61,9,9,0,0,1,12.09.17A8,8,0,0,0,15,12Z" id="secondary"></path><path style="fill: none; stroke: rgb(255, 255, 255); stroke-linecap: round; stroke-linejoin: round; stroke-width: 1px;" d="M6.1,5.61A5.42,5.42,0,0,1,7,8.86c0,2.23-1,6-2.73,7.58" id="primary"></path><path style="fill: none; stroke: rgb(255, 255, 255); stroke-linecap: round; stroke-linejoin: round; stroke-width: 1px;" d="M17,19.33A14.08,14.08,0,0,1,15,12a8,8,0,0,1,3-6.51" data-name="primary" id="primary-2"></path><path style="fill: none; stroke: rgb(255, 255, 255); stroke-linecap: round; stroke-linejoin: round; stroke-width: 1px;" d="M11.57,20.87A28.06,28.06,0,0,1,10,11.5a12.79,12.79,0,0,1,2.6-8.36" data-name="primary" id="primary-3"></path><path style="fill: none; stroke: rgb(255, 255, 255); stroke-linecap: round; stroke-linejoin: round; stroke-width: 1px;" d="M3.25,10.38c3-1.69,7.06-1.9,11.22-.24A18.62,18.62,0,0,1,20.7,14.3" data-name="primary" id="primary-4"></path><circle style="fill: none; stroke: rgb(255, 255, 255); stroke-linecap: round; stroke-linejoin: round; stroke-width: 1px;" r="9" cy="12" cx="12" data-name="primary" id="primary-5"></circle></svg>