<svg data-icon-name="caution" data-style="flat-line" icon_origin_id="11713" viewBox="0 0 24 24" xmlns="http://www.w3.org/2000/svg" data-name="Flat Line" id="caution" class="icon flat-line" width="48" height="48"><path style="fill: rgb(243, 243, 243); stroke-width: 1px;" d="M13.2,13H10.8a1,1,0,0,1-1-.9L9,4.1A1,1,0,0,1,10,3h4a1,1,0,0,1,1,1.1l-.8,8A1,1,0,0,1,13.2,13Zm.8,6a2,2,0,1,0-2,2A2,2,0,0,0,14,19Z" id="secondary"></path><path style="fill: none; stroke: rgb(255, 255, 255); stroke-linecap: round; stroke-linejoin: round; stroke-width: 1px;" d="M13.2,13H10.8a1,1,0,0,1-1-.9L9,4.1A1,1,0,0,1,10,3h4a1,1,0,0,1,1,1.1l-.8,8A1,1,0,0,1,13.2,13Zm.8,6a2,2,0,1,0-2,2A2,2,0,0,0,14,19Z" id="primary"></path></svg>