<svg data-icon-name="coffee" data-style="flat-line" icon_origin_id="19624" viewBox="0 0 24 24" xmlns="http://www.w3.org/2000/svg" data-name="Flat Line" id="coffee" class="icon flat-line" width="48" height="48"><path style="fill: rgb(243, 243, 243); stroke-width: 1px;" transform="translate(26 4) rotate(90)" d="M7,10h4a5,5,0,0,1,5,5v0a5,5,0,0,1-5,5H7a1,1,0,0,1-1-1V11a1,1,0,0,1,1-1Z" id="secondary"></path><path style="fill: none; stroke: rgb(255, 255, 255); stroke-linecap: round; stroke-linejoin: round; stroke-width: 1px;" d="M18,12H16v3a5.47,5.47,0,0,1-.1,1H18a2,2,0,0,0,0-4Z" id="primary"></path><path style="fill: none; stroke: rgb(255, 255, 255); stroke-linecap: round; stroke-linejoin: round; stroke-width: 1px;" d="M15,4V6M11,4V6M7,4V6m9,9V11a1,1,0,0,0-1-1H7a1,1,0,0,0-1,1v4a5,5,0,0,0,5,5h0A5,5,0,0,0,16,15ZM3,20H21" data-name="primary" id="primary-2"></path></svg>