<svg data-icon-name="microphone-stand" data-style="flat-line" icon_origin_id="21450" viewBox="0 0 24 24" xmlns="http://www.w3.org/2000/svg" data-name="Flat Line" id="microphone-stand" class="icon flat-line" width="48" height="48"><path style="fill: rgb(243, 243, 243); stroke-width: 1px;" d="M15.28,10.65,6.62,15.78a1,1,0,0,1-1.34-.3L4.09,13.73a1,1,0,0,1,.23-1.35l8-6.12Z" id="secondary"></path><path style="fill: none; stroke: rgb(255, 255, 255); stroke-linecap: round; stroke-linejoin: round; stroke-width: 1px;" d="M12,13v8m2,0H10m5.28-10.35L6.62,15.78a1,1,0,0,1-1.34-.3L4.09,13.73a1,1,0,0,1,.23-1.35l8-6.12Zm4.11-5.89a4,4,0,0,0-5.55-1.08A4,4,0,0,0,12.2,6.07l3.28,4.87a4,4,0,0,0,2.83-.62A4,4,0,0,0,19.39,4.76Zm-7.82.38L16,11.77" id="primary"></path></svg>