<svg width="59" height="65" viewBox="0 0 59 65" fill="none" xmlns="http://www.w3.org/2000/svg">
<path d="M38.9794 48.75H19.4794C18.6174 48.75 17.7908 49.0924 17.1813 49.7019C16.5718 50.3114 16.2294 51.138 16.2294 52C16.2294 55.4478 17.599 58.7544 20.037 61.1924C22.475 63.6304 25.7816 65 29.2294 65C32.6772 65 35.9838 63.6304 38.4218 61.1924C40.8597 58.7544 42.2294 55.4478 42.2294 52C42.2294 51.138 41.887 50.3114 41.2775 49.7019C40.668 49.0924 39.8413 48.75 38.9794 48.75Z" fill="#243477"/>
<path d="M55.5218 37.9275L51.9793 34.4175V22.75C51.9793 16.7163 49.5824 10.9298 45.316 6.66332C41.0495 2.39687 35.263 0 29.2293 0C23.1956 0 17.4091 2.39687 13.1426 6.66332C8.87618 10.9298 6.47931 16.7163 6.47931 22.75V34.4175L2.93681 37.9275C1.52945 39.3517 0.573684 41.1596 0.189259 43.1245C-0.195167 45.0896 0.00884668 47.1243 0.775738 48.9739C1.54263 50.8234 2.83829 52.4055 4.50039 53.522C6.16248 54.6384 8.11709 55.2395 10.1193 55.25H48.3393C50.3415 55.2395 52.2961 54.6384 53.9582 53.522C55.6203 52.4055 56.916 50.8234 57.6829 48.9739C58.4498 47.1243 58.6538 45.0896 58.2694 43.1245C57.8849 41.1596 56.9292 39.3517 55.5218 37.9275Z" fill="#01061B"/>
</svg>
