<svg data-icon-name="dashboard" data-style="flat-line" icon_origin_id="21314" viewBox="0 0 24 24" xmlns="http://www.w3.org/2000/svg" data-name="Flat Line" id="dashboard" class="icon flat-line" width="48" height="48"><path style="fill: rgb(243, 243, 243); stroke-width: 1px;" d="M9,12H4a1,1,0,0,1-1-1V4A1,1,0,0,1,4,3H9a1,1,0,0,1,1,1v7A1,1,0,0,1,9,12Zm12,8V13a1,1,0,0,0-1-1H15a1,1,0,0,0-1,1v7a1,1,0,0,0,1,1h5A1,1,0,0,0,21,20Z" id="secondary"></path><path style="fill: none; stroke: rgb(255, 255, 255); stroke-linecap: round; stroke-linejoin: round; stroke-width: 1px;" d="M21,7V4a1,1,0,0,0-1-1H15a1,1,0,0,0-1,1V7a1,1,0,0,0,1,1h5A1,1,0,0,0,21,7ZM10,20V17a1,1,0,0,0-1-1H4a1,1,0,0,0-1,1v3a1,1,0,0,0,1,1H9A1,1,0,0,0,10,20ZM9,12H4a1,1,0,0,1-1-1V4A1,1,0,0,1,4,3H9a1,1,0,0,1,1,1v7A1,1,0,0,1,9,12Zm12,8V13a1,1,0,0,0-1-1H15a1,1,0,0,0-1,1v7a1,1,0,0,0,1,1h5A1,1,0,0,0,21,20Z" id="primary"></path></svg>