<svg data-icon-name="video-camera" data-style="flat-line" icon_origin_id="14284" viewBox="0 0 24 24" xmlns="http://www.w3.org/2000/svg" data-name="Flat Line" id="video-camera" class="icon flat-line" width="48" height="48"><rect style="fill: rgb(243, 243, 243); stroke-width: 1px;" rx="1" height="12" width="12" y="6" x="3" id="secondary"></rect><path style="fill: none; stroke: rgb(255, 255, 255); stroke-linecap: round; stroke-linejoin: round; stroke-width: 1px;" d="M7,10H9m6,5,4.62,1.92A1,1,0,0,0,21,16V8a1,1,0,0,0-1.38-.92L15,9Zm0,2V7a1,1,0,0,0-1-1H4A1,1,0,0,0,3,7V17a1,1,0,0,0,1,1H14A1,1,0,0,0,15,17Z" id="primary"></path></svg>