<svg width="16" height="16" viewBox="0 0 16 16" fill="none" xmlns="http://www.w3.org/2000/svg">
<path d="M14.5158 0.693805C13.5905 -0.231268 12.0947 -0.231268 11.1693 0.693805L9.89748 1.96103L14.0341 6.0964L15.306 4.82495C16.2313 3.89988 16.2313 2.40456 15.306 1.47948L14.5158 0.693805ZM1.87345 9.98678C1.6157 10.2444 1.41711 10.5613 1.30302 10.9119L0.0523083 14.6628C-0.0702281 15.0261 0.0269562 15.4274 0.297381 15.702C0.567807 15.9765 0.969218 16.0695 1.33683 15.947L5.08898 14.6966C5.43546 14.5784 5.75236 14.384 6.01434 14.1264L13.0834 7.05527L8.94254 2.91567L1.87345 9.98678Z" fill="white"/>
</svg>
