<svg data-icon-name="forest-2" data-style="flat-line" icon_origin_id="11334" viewBox="0 0 24 24" xmlns="http://www.w3.org/2000/svg" data-name="Flat Line" id="forest-2" class="icon flat-line" width="48" height="48"><path style="fill: rgb(243, 243, 243); stroke-width: 1px;" d="M13,8.5a3.49,3.49,0,0,0-2.09-3.2,3,3,0,0,0-5.82,0,3.49,3.49,0,0,0,0,6.4,3,3,0,0,0,5.82,0A3.49,3.49,0,0,0,13,8.5Z" id="secondary"></path><path style="fill: none; stroke: rgb(255, 255, 255); stroke-linecap: round; stroke-linejoin: round; stroke-width: 1px;" d="M3,21H21M13,8.5a3.49,3.49,0,0,0-2.09-3.2,3,3,0,0,0-5.82,0,3.49,3.49,0,0,0,0,6.4,3,3,0,0,0,5.82,0A3.49,3.49,0,0,0,13,8.5ZM8,9V21m13-8V10a2,2,0,0,0-2-2h0a2,2,0,0,0-2,2v3a2,2,0,0,0,2,2h0A2,2,0,0,0,21,13Zm-2,2v6" id="primary"></path></svg>