<svg data-icon-name="game-console-cable" data-style="flat-line" icon_origin_id="17285" viewBox="0 0 24 24" xmlns="http://www.w3.org/2000/svg" data-name="Flat Line" id="game-console-cable" class="icon flat-line" width="48" height="48"><path style="fill: rgb(243, 243, 243); stroke-width: 1px;" d="M20.42,10.71a4,4,0,0,0-4-3.71H15l-.5,2h-5L9,7H7.57a4,4,0,0,0-4,3.71l-.57,8A2.12,2.12,0,0,0,5.24,21a2.24,2.24,0,0,0,2-1.82L8,15.79a1,1,0,0,1,1-.79h6.12a1,1,0,0,1,1,.79l.73,3.39a2.24,2.24,0,0,0,2,1.82A2.12,2.12,0,0,0,21,18.72Z" id="secondary"></path><path style="fill: none; stroke: rgb(255, 255, 255); stroke-linecap: round; stroke-linejoin: round; stroke-width: 1px;" d="M15,7H9l.5,2h5ZM12,3V7m4.43,0a4,4,0,0,1,4,3.72l.57,8A2.12,2.12,0,0,1,18.76,21a2.24,2.24,0,0,1-2-1.82L16,15.79a1,1,0,0,0-1-.79H8.94a1,1,0,0,0-1,.79l-.73,3.39a2.24,2.24,0,0,1-2,1.82A2.12,2.12,0,0,1,3,18.72l.57-8A4,4,0,0,1,7.57,7Z" id="primary"></path></svg>