<svg data-icon-name="hamburger-cheese" data-style="flat-line" icon_origin_id="19655" viewBox="0 0 24 24" xmlns="http://www.w3.org/2000/svg" data-name="Flat Line" id="hamburger-cheese" class="icon flat-line" width="48" height="48"><path style="fill: rgb(243, 243, 243); stroke-width: 1px;" d="M5,9H19a4,4,0,0,0-4-4H9A4,4,0,0,0,5,9Zm14,4v2a4,4,0,0,1-4,4H9a4,4,0,0,1-4-4V13h8l.11.21a1,1,0,0,0,1.78,0L15,13h4Z" id="secondary"></path><path style="fill: none; stroke: rgb(255, 255, 255); stroke-linecap: round; stroke-linejoin: round; stroke-width: 1px;" d="M5,9H19a4,4,0,0,0-4-4H9A4,4,0,0,0,5,9Zm14,4v2a4,4,0,0,1-4,4H9a4,4,0,0,1-4-4V13h8l.11.21a1,1,0,0,0,1.78,0L15,13h4ZM17,9l-2.11,4.21a1,1,0,0,1-1.78,0L11,9Zm-4,4H5A2,2,0,0,1,5,9h6Zm8-2a2,2,0,0,1-2,2H15l2-4h2A2,2,0,0,1,21,11Z" id="primary"></path></svg>