<svg data-icon-name="basketball-dribble" data-style="flat-line" icon_origin_id="22553" viewBox="0 0 24 24" xmlns="http://www.w3.org/2000/svg" data-name="Line Color" id="basketball-dribble" class="icon flat-line" width="48" height="48"><circle style="fill: rgb(243, 243, 243); stroke-width: 1px;" r="2" cy="5" cx="12" id="secondary"></circle><line style="fill: none; stroke: rgb(255, 255, 255); stroke-linecap: round; stroke-linejoin: round; stroke-width: 1.35px;" y2="14.5" x2="18.55" y1="14.5" x1="18.45" id="primary-upstroke"></line><circle style="fill: none; stroke: rgb(255, 255, 255); stroke-linecap: round; stroke-linejoin: round; stroke-width: 1px;" r="2" cy="5" cx="12" id="primary"></circle><path style="fill: none; stroke: rgb(255, 255, 255); stroke-linecap: round; stroke-linejoin: round; stroke-width: 1px;" d="M19,10l-2.28.76a1,1,0,0,1-1.14-.4l-1-1.47A2,2,0,0,0,12.93,8H10.24a1,1,0,0,0-.45.11L6.3,9.85a1,1,0,0,0-.45.45L5,12" data-name="primary" id="primary-2"></path><path style="fill: none; stroke: rgb(255, 255, 255); stroke-linecap: round; stroke-linejoin: round; stroke-width: 1px;" d="M10,8.05a58,58,0,0,0-1,6.66.86.86,0,0,0,.14.54c.8,1.24,2.74,2.06,3.9,2.46A1,1,0,0,1,13.68,19L13,21" data-name="primary" id="primary-3"></path><path style="fill: none; stroke: rgb(255, 255, 255); stroke-linecap: round; stroke-linejoin: round; stroke-width: 1px;" d="M6,21a15.6,15.6,0,0,0,3.86-4.62" data-name="primary" id="primary-4"></path><line style="fill: none; stroke: rgb(255, 255, 255); stroke-linecap: round; stroke-linejoin: round; stroke-width: 1px;" y2="13" x2="13" y1="8.34" x1="13.93" data-name="primary" id="primary-5"></line></svg>