<svg data-icon-name="karaoke" data-style="flat-line" icon_origin_id="14227" viewBox="0 0 24 24" xmlns="http://www.w3.org/2000/svg" data-name="Flat Line" id="karaoke" class="icon flat-line" width="48" height="48"><path style="fill: rgb(243, 243, 243); stroke-width: 1px;" d="M9.64,10,9.06,20.06a1,1,0,0,1-1,.94H5.94a1,1,0,0,1-1-.94L4.36,10Z" id="secondary"></path><path style="fill: none; stroke: rgb(255, 255, 255); stroke-linecap: round; stroke-linejoin: round; stroke-width: 1px;" d="M14,15h7m-5-4h5m-7,8h7M9.64,10,9.06,20.06a1,1,0,0,1-1,.94H5.94a1,1,0,0,1-1-.94L4.36,10ZM7,3a4,4,0,0,0-2.62,7H9.62A4,4,0,0,0,7,3Zm4,7H3" id="primary"></path></svg>