<svg data-icon-name="lock" data-style="flat-line" icon_origin_id="21430" viewBox="0 0 24 24" xmlns="http://www.w3.org/2000/svg" data-name="Flat Line" id="lock" class="icon flat-line" width="48" height="48"><path style="fill: rgb(243, 243, 243); stroke-width: 1px;" d="M18,9H6a1,1,0,0,0-1,1V20a1,1,0,0,0,1,1H18a1,1,0,0,0,1-1V10A1,1,0,0,0,18,9Zm-6,7a1.5,1.5,0,1,1,1.5-1.5A1.5,1.5,0,0,1,12,16Z" id="secondary"></path><path style="fill: none; stroke: rgb(255, 255, 255); stroke-linecap: round; stroke-linejoin: round; stroke-width: 1px;" d="M13.5,14.5A1.5,1.5,0,1,1,12,13,1.5,1.5,0,0,1,13.5,14.5ZM12,17V16m7,4V10a1,1,0,0,0-1-1H6a1,1,0,0,0-1,1V20a1,1,0,0,0,1,1H18A1,1,0,0,0,19,20Z" id="primary"></path><path style="fill: none; stroke: rgb(255, 255, 255); stroke-linecap: round; stroke-linejoin: round; stroke-width: 1px;" d="M16,9V7a4,4,0,0,0-4-4h0A4,4,0,0,0,8,7V9" data-name="primary" id="primary-2"></path></svg>