<svg width="108" height="79" viewBox="0 0 108 79" fill="none" xmlns="http://www.w3.org/2000/svg">
<path d="M94.5 42.7916H13.5C12.3065 42.7916 11.1619 42.4448 10.318 41.8275C9.47411 41.2102 9 40.373 9 39.5C9 38.627 9.47411 37.7897 10.318 37.1724C11.1619 36.5551 12.3065 36.2083 13.5 36.2083H94.5C95.6935 36.2083 96.8381 36.5551 97.682 37.1724C98.5259 37.7897 99 38.627 99 39.5C99 40.373 98.5259 41.2102 97.682 41.8275C96.8381 42.4448 95.6935 42.7916 94.5 42.7916Z" fill="#FCC3C3"/>
<path d="M94.5 62.5416H13.5C12.3065 62.5416 11.1619 62.1948 10.318 61.5775C9.47411 60.9602 9 60.123 9 59.25C9 58.377 9.47411 57.5397 10.318 56.9224C11.1619 56.3051 12.3065 55.9583 13.5 55.9583H94.5C95.6935 55.9583 96.8381 56.3051 97.682 56.9224C98.5259 57.5397 99 58.377 99 59.25C99 60.123 98.5259 60.9602 97.682 61.5775C96.8381 62.1948 95.6935 62.5416 94.5 62.5416ZM94.5 23.0416H13.5C12.3065 23.0416 11.1619 22.6948 10.318 22.0775C9.47411 21.4602 9 20.623 9 19.75C9 18.877 9.47411 18.0397 10.318 17.4224C11.1619 16.8051 12.3065 16.4583 13.5 16.4583H94.5C95.6935 16.4583 96.8381 16.8051 97.682 17.4224C98.5259 18.0397 99 18.877 99 19.75C99 20.623 98.5259 21.4602 97.682 22.0775C96.8381 22.6948 95.6935 23.0416 94.5 23.0416Z" fill="#F77B54"/>
</svg>
