<svg data-icon-name="film-movie" data-style="flat-line" icon_origin_id="14217" viewBox="0 0 24 24" xmlns="http://www.w3.org/2000/svg" data-name="Flat Line" id="film-movie" class="icon flat-line" width="48" height="48"><rect style="fill: rgb(243, 243, 243); stroke-width: 1px;" transform="translate(24 0) rotate(90)" rx="1" height="18" width="10" y="3" x="7" id="secondary"></rect><path style="fill: none; stroke: rgb(255, 255, 255); stroke-linecap: round; stroke-linejoin: round; stroke-width: 1px;" d="M12,17v4h6V17ZM6,17v4h6V17ZM3,21H21M18,7V3H12V7ZM12,7V3H6V7ZM3,3H21m-8,9-2-1.5v3ZM3,16V8A1,1,0,0,1,4,7H20a1,1,0,0,1,1,1v8a1,1,0,0,1-1,1H4A1,1,0,0,1,3,16Z" id="primary"></path></svg>