<svg data-icon-name="playlist-3" data-style="flat-line" icon_origin_id="14271" viewBox="0 0 24 24" xmlns="http://www.w3.org/2000/svg" data-name="Flat Line" id="playlist-3" class="icon flat-line" width="48" height="48"><path style="fill: none; stroke: rgb(255, 255, 255); stroke-linecap: round; stroke-linejoin: round; stroke-width: 1px;" d="M15,15h6m-6-4h6M11,19H21" id="primary"></path><path style="fill: none; stroke: rgb(255, 255, 255); stroke-linecap: round; stroke-linejoin: round; stroke-width: 1px;" d="M11,12h0a4.16,4.16,0,0,1-5.62,3.89A3.78,3.78,0,0,1,3,12.5,3.42,3.42,0,0,1,5.34,9.12L9.13,7.7A2.89,2.89,0,0,0,11,5h0A2,2,0,0,0,9,3H9A2,2,0,0,0,7,5V19a2,2,0,0,1-2,2H5a2,2,0,0,1-2-2H3" data-name="primary" id="primary-2"></path></svg>