<svg data-icon-name="work-agenda" data-style="flat-line" icon_origin_id="19049" viewBox="0 0 24 24" xmlns="http://www.w3.org/2000/svg" data-name="Flat Line" id="work-agenda" class="icon flat-line" width="48" height="48"><path style="fill: rgb(243, 243, 243); stroke-width: 1px;" d="M5,3A1,1,0,0,0,4,4V20a1,1,0,0,0,1,1H17V3Z" id="secondary"></path><path style="fill: none; stroke: rgb(255, 255, 255); stroke-linecap: round; stroke-linejoin: round; stroke-width: 1px;" d="M4,20V4A1,1,0,0,1,5,3H20a1,1,0,0,1,1,1V20a1,1,0,0,1-1,1H5A1,1,0,0,1,4,20ZM3,8H5M3,12H5M3,16H5m12,5h3a1,1,0,0,0,1-1V4a1,1,0,0,0-1-1H17Z" id="primary"></path></svg>