<svg data-icon-name="send" data-style="flat-color" icon_origin_id="16159" viewBox="0 0 24 24" xmlns="http://www.w3.org/2000/svg" data-name="Flat Color" id="send" class="icon flat-color" width="48" height="48"><path style="fill: rgb(247, 123, 84);" d="M21.66,12a2,2,0,0,1-1.14,1.81L5.87,20.75A2.08,2.08,0,0,1,5,21a2,2,0,0,1-1.82-2.82L5.46,13l.45-1-.45-1L3.18,5.87A2,2,0,0,1,5.87,3.25l14.65,6.94A2,2,0,0,1,21.66,12Z" id="primary"></path><path style="fill: rgb(252, 195, 195);" d="M12,12a1,1,0,0,1-1,1H5.46l.45-1-.45-1H11A1,1,0,0,1,12,12Z" id="secondary"></path></svg>