<svg data-icon-name="ticket" data-style="flat-line" icon_origin_id="17703" viewBox="0 0 24 24" xmlns="http://www.w3.org/2000/svg" data-name="Flat Line" id="ticket" class="icon flat-line" width="48" height="48"><path style="fill: rgb(243, 243, 243); stroke-width: 1px;" d="M18,12a3,3,0,0,0,3,3v3a1,1,0,0,1-1,1H4a1,1,0,0,1-1-1V15A3,3,0,0,0,3,9V6A1,1,0,0,1,4,5H20a1,1,0,0,1,1,1V9A3,3,0,0,0,18,12Z" id="secondary"></path><path style="fill: none; stroke: rgb(255, 255, 255); stroke-linecap: round; stroke-linejoin: round; stroke-width: 1px;" d="M10,5V7m0,10v2m0-6V11M21,9V6a1,1,0,0,0-1-1H4A1,1,0,0,0,3,6V9a3,3,0,0,1,0,6v3a1,1,0,0,0,1,1H20a1,1,0,0,0,1-1V15a3,3,0,0,1,0-6Z" id="primary"></path></svg>