<svg data-icon-name="wave" data-style="flat-line" icon_origin_id="25023" viewBox="0 0 24 24" xmlns="http://www.w3.org/2000/svg" data-name="Line Color" id="wave" class="icon flat-line" width="48" height="48"><path style="fill: none; stroke: rgb(255, 255, 255); stroke-linecap: round; stroke-linejoin: round; stroke-width: 1px;" d="M21,11c-2.25,0-2.25,2-4.5,2S14.25,11,12,11,9.75,13,7.5,13,5.25,11,3,11" id="primary"></path><path style="fill: none; stroke: rgb(255, 255, 255); stroke-linecap: round; stroke-linejoin: round; stroke-width: 1px;" d="M3,5C5.25,5,5.25,7,7.5,7S9.75,5,12,5s2.26,2,4.51,2S18.75,5,21,5" data-name="primary" id="primary-2"></path><path style="fill: none; stroke: rgb(255, 255, 255); stroke-linecap: round; stroke-linejoin: round; stroke-width: 1px;" d="M21,17c-2.25,0-2.25,2-4.5,2S14.25,17,12,17,9.75,19,7.5,19,5.25,17,3,17" data-name="primary" id="primary-3"></path></svg>