<svg data-icon-name="wine-glass" data-style="flat-line" icon_origin_id="19729" viewBox="0 0 24 24" xmlns="http://www.w3.org/2000/svg" data-name="Flat Line" id="wine-glass" class="icon flat-line" width="48" height="48"><path style="fill: rgb(243, 243, 243); stroke-width: 1px;" d="M8,3h8a1,1,0,0,1,1,1V9a5,5,0,0,1-5,5h0A5,5,0,0,1,7,9V4A1,1,0,0,1,8,3Z" id="secondary"></path><path style="fill: none; stroke: rgb(255, 255, 255); stroke-linecap: round; stroke-linejoin: round; stroke-width: 1px;" d="M12,14v7M9,21h6m-3-7h0A5,5,0,0,1,7,9V4A1,1,0,0,1,8,3h8a1,1,0,0,1,1,1V9A5,5,0,0,1,12,14Z" id="primary"></path></svg>